<svg width="42" height="42" viewBox="0 0 42 42" fill="none" xmlns="http://www.w3.org/2000/svg">
<path d="M30.5781 11.7031V20.3281H31C32.3438 20.3281 33.3177 19.9062 33.9219 19.0625C34.526 18.2188 34.9115 16.974 35.0781 15.3281H35.6719V26.4219H35.0781C34.9531 25.2135 34.6875 24.224 34.2812 23.4531C33.8854 22.6823 33.4219 22.1667 32.8906 21.9062C32.3594 21.6354 31.5885 21.5 30.5781 21.5V27.4688C30.5781 28.6354 30.625 29.349 30.7188 29.6094C30.8229 29.8698 31.0104 30.0833 31.2812 30.25C31.5521 30.4167 31.9896 30.5 32.5938 30.5H33.8594C35.8385 30.5 37.4219 30.0417 38.6094 29.125C39.8073 28.2083 40.6667 26.8125 41.1875 24.9375H41.7656L40.8125 31.6719H22.5V31.0938H23.2031C23.8177 31.0938 24.3125 30.9844 24.6875 30.7656C24.9583 30.6198 25.1667 30.3698 25.3125 30.0156C25.4271 29.7656 25.4844 29.1094 25.4844 28.0469V14.1094C25.4844 13.151 25.4583 12.5625 25.4062 12.3438C25.3021 11.9792 25.1094 11.6979 24.8281 11.5C24.4323 11.2083 23.8906 11.0625 23.2031 11.0625H22.5V10.4844H40.2344V16.75H39.6406C39.3385 15.2188 38.9115 14.1198 38.3594 13.4531C37.8177 12.7865 37.0469 12.2969 36.0469 11.9844C35.4635 11.7969 34.3698 11.7031 32.7656 11.7031H30.5781Z" fill="#00737F"/>
<path d="M20.0938 10V17.3438H19.4844C19.026 15.4271 18.1719 13.9583 16.9219 12.9375C15.6719 11.9167 14.2552 11.4062 12.6719 11.4062C11.349 11.4062 10.1354 11.7865 9.03125 12.5469C7.92708 13.3073 7.11979 14.3021 6.60938 15.5312C5.95312 17.1042 5.625 18.8542 5.625 20.7812C5.625 22.6771 5.86458 24.4062 6.34375 25.9688C6.82292 27.5208 7.57292 28.6979 8.59375 29.5C9.61458 30.2917 10.9375 30.6875 12.5625 30.6875C13.8958 30.6875 15.1146 30.3958 16.2188 29.8125C17.3333 29.2292 18.5052 28.224 19.7344 26.7969V28.625C18.5469 29.8646 17.3073 30.7656 16.0156 31.3281C14.7344 31.8802 13.2344 32.1562 11.5156 32.1562C9.25521 32.1562 7.24479 31.7031 5.48438 30.7969C3.73438 29.8906 2.38021 28.5885 1.42188 26.8906C0.473958 25.1927 0 23.3854 0 21.4688C0 19.4479 0.526042 17.5312 1.57812 15.7188C2.64062 13.9062 4.06771 12.5 5.85938 11.5C7.66146 10.5 9.57292 10 11.5938 10C13.0833 10 14.6562 10.3229 16.3125 10.9688C17.2708 11.3438 17.8802 11.5312 18.1406 11.5312C18.474 11.5312 18.7604 11.4115 19 11.1719C19.25 10.9219 19.4115 10.5312 19.4844 10H20.0938Z" fill="#00737F"/>
</svg>
