<svg width="45" height="37" viewBox="0 0 45 37" fill="none" xmlns="http://www.w3.org/2000/svg">
<path d="M21.625 7.32812V14.6719H21.0156C20.5573 12.7552 19.7031 11.2865 18.4531 10.2656C17.2031 9.24479 15.7865 8.73438 14.2031 8.73438C12.8802 8.73438 11.6667 9.11458 10.5625 9.875C9.45833 10.6354 8.65104 11.6302 8.14062 12.8594C7.48438 14.4323 7.15625 16.1823 7.15625 18.1094C7.15625 20.0052 7.39583 21.7344 7.875 23.2969C8.35417 24.849 9.10417 26.026 10.125 26.8281C11.1458 27.6198 12.4688 28.0156 14.0938 28.0156C15.4271 28.0156 16.6458 27.724 17.75 27.1406C18.8646 26.5573 20.0365 25.5521 21.2656 24.125V25.9531C20.0781 27.1927 18.8385 28.0938 17.5469 28.6562C16.2656 29.2083 14.7656 29.4844 13.0469 29.4844C10.7865 29.4844 8.77604 29.0312 7.01562 28.125C5.26562 27.2188 3.91146 25.9167 2.95312 24.2188C2.00521 22.5208 1.53125 20.7135 1.53125 18.7969C1.53125 16.776 2.05729 14.8594 3.10938 13.0469C4.17188 11.2344 5.59896 9.82812 7.39062 8.82812C9.19271 7.82812 11.1042 7.32812 13.125 7.32812C14.6146 7.32812 16.1875 7.65104 17.8438 8.29688C18.8021 8.67188 19.4115 8.85938 19.6719 8.85938C20.0052 8.85938 20.2917 8.73958 20.5312 8.5C20.7812 8.25 20.9427 7.85938 21.0156 7.32812H21.625ZM32.1094 9.03125V17.6562H32.5312C33.875 17.6562 34.849 17.2344 35.4531 16.3906C36.0573 15.5469 36.4427 14.3021 36.6094 12.6562H37.2031V23.75H36.6094C36.4844 22.5417 36.2188 21.5521 35.8125 20.7812C35.4167 20.0104 34.9531 19.4948 34.4219 19.2344C33.8906 18.9635 33.1198 18.8281 32.1094 18.8281V24.7969C32.1094 25.9635 32.1562 26.6771 32.25 26.9375C32.3542 27.1979 32.5417 27.4115 32.8125 27.5781C33.0833 27.7448 33.5208 27.8281 34.125 27.8281H35.3906C37.3698 27.8281 38.9531 27.3698 40.1406 26.4531C41.3385 25.5365 42.1979 24.1406 42.7188 22.2656H43.2969L42.3438 29H24.0312V28.4219H24.7344C25.349 28.4219 25.8438 28.3125 26.2188 28.0938C26.4896 27.9479 26.6979 27.6979 26.8438 27.3438C26.9583 27.0938 27.0156 26.4375 27.0156 25.375V11.4375C27.0156 10.4792 26.9896 9.89062 26.9375 9.67188C26.8333 9.30729 26.6406 9.02604 26.3594 8.82812C25.9635 8.53646 25.4219 8.39062 24.7344 8.39062H24.0312V7.8125H41.7656V14.0781H41.1719C40.8698 12.5469 40.4427 11.4479 39.8906 10.7812C39.349 10.1146 38.5781 9.625 37.5781 9.3125C36.9948 9.125 35.901 9.03125 34.2969 9.03125H32.1094Z" fill="#00737F"/>
</svg>
