<?xml version="1.0" encoding="utf-8"?>
<!-- Generator: Adobe Illustrator 16.0.0, SVG Export Plug-In . SVG Version: 6.00 Build 0)  -->
<!DOCTYPE svg PUBLIC "-//W3C//DTD SVG 1.1//EN" "http://www.w3.org/Graphics/SVG/1.1/DTD/svg11.dtd">
<svg version="1.1" id="Layer_1" xmlns="http://www.w3.org/2000/svg" xmlns:xlink="http://www.w3.org/1999/xlink" x="0px" y="0px"
	 width="1080px" height="1080px" viewBox="0 0 1080 1080" enable-background="new 0 0 1080 1080" xml:space="preserve">
<g id="XMLID_1_">
	<g>
		<polygon shape-rendering="crispEdges" fill="#FFF200" points="856.335,754.704 1071.928,1027.174 833.768,950.67 780.718,778.99 
					"/>
		<polygon shape-rendering="crispEdges" fill="#EC008C" points="679.141,179.18 1037.633,696.488 856.335,754.704 719.95,582.341 
			618.89,255.31 		"/>
		<polygon shape-rendering="crispEdges" fill="#00AEEF" points="833.768,950.67 857.409,1027.174 222.58,1027.174 246.237,950.62 
			539.982,856.292 		"/>
		<polygon shape-rendering="crispEdges" fill="#ED1C24" points="856.335,754.704 780.718,778.99 719.95,582.341 		"/>
		<polygon shape-rendering="crispEdges" fill="#00A651" points="833.768,950.67 539.982,856.292 780.718,778.99 		"/>
		<polygon id="me" shape-rendering="crispEdges" fill="#363639" points="719.95,582.341 780.718,778.99 539.982,856.292 
			299.281,778.971 360.023,582.395 540.027,354.957 		"/>
		<polygon shape-rendering="crispEdges" fill="#2E3192" points="618.89,255.31 719.95,582.341 540.027,354.957 		"/>
		<polygon shape-rendering="crispEdges" fill="#00AEEF" points="539.997,0 618.89,255.31 540.027,354.957 461.124,255.236 		"/>
		<polygon shape-rendering="crispEdges" fill="#00A651" points="461.124,255.236 540.027,354.957 360.023,582.395 		"/>
		<polygon shape-rendering="crispEdges" fill="#2E3192" points="539.982,856.292 246.237,950.62 299.281,778.971 		"/>
		<polygon shape-rendering="crispEdges" fill="#FFF200" points="461.124,255.236 360.023,582.395 223.674,754.685 42.396,696.448 
			400.943,179.18 		"/>
		<polygon shape-rendering="crispEdges" fill="#ED1C24" points="223.674,754.685 360.023,582.395 299.281,778.971 		"/>
		<polygon shape-rendering="crispEdges" fill="#EC008C" points="299.281,778.971 246.237,950.62 8.076,1027.1 223.674,754.685 		"/>
	</g>
</g>
</svg>
